<svg width="54" height="64" viewBox="0 0 54 64" fill="none" xmlns="http://www.w3.org/2000/svg">
<path d="M21.5652 11.8182H3C2.44772 11.8182 2 12.2659 2 12.8182V61C2 61.5523 2.44771 62 3 62H37.9565C38.5088 62 38.9565 61.5523 38.9565 61V27.0909M21.5652 11.8182L38.9565 27.0909M21.5652 11.8182V26.0909C21.5652 26.6432 22.0129 27.0909 22.5652 27.0909H38.9565M34.6087 2H16.0435C15.4912 2 15.0435 2.44771 15.0435 3V8.54545M34.6087 2L52 17.2727M34.6087 2V16.2727C34.6087 16.825 35.0564 17.2727 35.6087 17.2727H52M52 17.2727V51.1818C52 51.7341 51.5523 52.1818 51 52.1818H43.3043" stroke="white" stroke-width="3.5"/>
</svg>
